<svg xmlns="http://www.w3.org/2000/svg" width="156" height="48" fill="none"><path fill="#1B1921" d="M77.294 40.094c5.506-2.259 9.036-7.623 8.894-13.694 0-3.953-1.553-7.624-4.235-10.447-2.682-2.824-6.494-4.377-10.306-4.235-5.93 0-11.153 3.529-13.412 9.176-2.258 5.506-.988 11.859 3.106 16.094 4.236 4.236 10.447 5.506 15.953 3.106Zm-5.647-5.647c-4.094 0-7.34-3.247-7.34-7.906s3.246-7.906 7.34-7.906c4.094 0 7.341 3.247 7.341 7.906s-3.247 7.906-7.34 7.906Zm75.953 6.07a10.662 10.662 0 0 0 6.306-11.834 10.656 10.656 0 0 0-10.259-8.636c-4.235 0-8.047 2.541-9.741 6.635-1.553 3.953-.706 8.612 2.259 11.577 3.106 2.965 7.482 3.812 11.435 2.259Zm-4.094-5.223c-2.541 0-4.518-1.976-4.518-4.659 0-2.823 1.977-4.659 4.518-4.659 2.541 0 4.518 1.977 4.518 4.66 0 2.682-1.977 4.658-4.518 4.658Zm-46.73-24.282v29.93h-7.764v-29.93h7.765Zm11.577 0v29.93h-7.341v-29.93h7.341Zm10.306 24.706-8.329-15.812h7.764l4.377 8.612 4.376-8.612h7.624L119.224 48h-7.483l6.918-12.282Z"/><path fill="#0BC1C0" d="M9.574 18.934c0-4.659 1.694-8.894 4.518-12.283a20.669 20.669 0 0 0 7.482 39.955c8.894 0 16.518-5.648 19.483-13.554a18.816 18.816 0 0 1-12.424 4.66 18.743 18.743 0 0 1-19.06-18.778Z"/><path fill="#0BC1C0" d="M28.49.016c-5.788 0-10.87 2.54-14.4 6.635a20.754 20.754 0 0 1 28.236 19.2c0 2.542-.423 4.942-1.27 7.06a18.594 18.594 0 0 0 6.494-14.118C47.408 8.486 38.938.016 28.49.016Z"/></svg>